<?xml version="1.0" encoding="utf-8"?>
<!-- Generator: Adobe Illustrator 24.3.0, SVG Export Plug-In . SVG Version: 6.00 Build 0)  -->
<svg version="1.1" id="Layer_1" xmlns="http://www.w3.org/2000/svg" xmlns:xlink="http://www.w3.org/1999/xlink" x="0px" y="0px"
	 viewBox="0 0 120 120" enable-background="new 0 0 120 120" xml:space="preserve">
<g>
	<g>
		<path fill="#00A1F1" d="M41.45,64.203v7.817c0,1.079,0.875,1.954,1.954,1.954h3.908V62.249h-3.908
			C42.325,62.249,41.45,63.124,41.45,64.203z"/>
		<polygon fill="#00A1F1" points="56.229,76.254 73.04,85.049 73.04,66.158 56.229,67.173 		"/>
		<polygon fill="#00A1F1" points="56.229,59.97 56.229,63.884 73.04,59.319 73.04,51.175 		"/>
	</g>
	<path fill="#7CBB00" d="M33.2,45.417c-3.22,0-5.831-2.611-5.831-5.832v45.392c0,3.22,2.611,5.831,5.831,5.831h0.042V45.417H33.2z"
		/>
	<g>
		<path fill="#FFBB00" d="M69.009,28.273h-0.107H33.2c-3.22,0-5.831,2.611-5.831,5.832v5.48c0,3.221,2.611,5.832,5.831,5.832h35.931
			C66.574,40.616,66.519,32.948,69.009,28.273z"/>
		<path fill="#FFBB00" d="M47.312,61.924V74.3c0,1.079,0.875,1.954,1.954,1.954h6.963V59.97h-6.963
			C48.187,59.97,47.312,60.845,47.312,61.924z"/>
	</g>
	<g>
		<path fill="#F65314" d="M77.1,63.251c-0.287,0.286-0.287,0.75,0,1.036c2.107,2.108,2.107,5.541,0,7.649
			c-0.287,0.286-0.287,0.75,0,1.036c0.142,0.144,0.33,0.215,0.517,0.215c0.188,0,0.375-0.071,0.519-0.215
			c2.679-2.68,2.679-7.042,0-9.722C77.85,62.966,77.386,62.964,77.1,63.251z"/>
		<path fill="#F65314" d="M81.578,58.909c-0.286-0.286-0.75-0.286-1.036,0c-0.286,0.286-0.286,0.75,0,1.036
			c4.504,4.504,4.504,11.831,0,16.335c-0.286,0.286-0.286,0.75,0,1.036c0.143,0.144,0.33,0.215,0.518,0.215
			c0.188,0,0.375-0.071,0.519-0.215C86.653,72.241,86.653,63.984,81.578,58.909z"/>
		<path fill="#F65314" d="M85.02,54.566c-0.286-0.286-0.75-0.286-1.036,0c-0.286,0.286-0.286,0.75,0,1.036
			c6.898,6.898,6.898,18.122,0,25.02c-0.286,0.286-0.286,0.75,0,1.036c0.144,0.144,0.33,0.215,0.519,0.215
			c0.188,0,0.375-0.071,0.518-0.215C92.49,74.189,92.49,62.035,85.02,54.566z"/>
	</g>
	<g>
		<path fill="#1A171B" d="M62.532,33.372H46.336c-0.404,0-0.733,0.328-0.733,0.732s0.329,0.733,0.733,0.733h16.196
			c0.404,0,0.732-0.329,0.732-0.733S62.936,33.372,62.532,33.372z"/>
		<path fill="#1A171B" d="M43.16,34.105c0-0.404-0.328-0.732-0.732-0.732h-9.186c-0.404,0-0.732,0.328-0.732,0.732
			s0.328,0.733,0.732,0.733h9.186C42.832,34.838,43.16,34.509,43.16,34.105z"/>
		<path fill="#1A171B" d="M62.532,38.833H40.083c-0.404,0-0.733,0.328-0.733,0.732c0,0.404,0.328,0.733,0.733,0.733h22.449
			c0.404,0,0.732-0.329,0.732-0.733C63.265,39.161,62.936,38.833,62.532,38.833z"/>
		<path fill="#1A171B" d="M72.7,50.526l-2.836,1.483v-6.592c0-0.127-0.028-0.24-0.086-0.345c-2.45-4.6-2.506-11.981-0.123-16.455
			c0.121-0.228,0.113-0.501-0.019-0.722c-0.132-0.221-0.371-0.355-0.628-0.355H33.2c-3.619,0-6.563,2.944-6.563,6.564v5.48v45.392
			c0,3.619,2.944,6.564,6.605,6.564h35.89c0.404,0,0.732-0.328,0.732-0.733v-6.592l2.836,1.483c0.107,0.056,0.224,0.083,0.34,0.083
			c0.132,0,0.264-0.035,0.38-0.106c0.22-0.132,0.353-0.37,0.353-0.626V51.175c0-0.256-0.133-0.494-0.353-0.626
			C73.2,50.416,72.929,50.409,72.7,50.526z M32.51,90.028c-2.486-0.338-4.408-2.475-4.408-5.051V43.716
			c1.068,1.315,2.634,2.211,4.408,2.397V90.028z M33.2,44.684c-2.811,0-5.099-2.287-5.099-5.099v-5.48
			c0-2.812,2.288-5.099,5.099-5.099h34.651c-1.9,4.529-1.852,11.062,0.119,15.678H33.2z M68.398,90.075H33.975V46.15h34.423v6.627
			l-12.351,6.461h-6.781c-1.481,0-2.687,1.205-2.687,2.688V74.3c0,1.482,1.205,2.688,2.687,2.688h6.781l12.351,6.461V90.075z
			 M55.496,60.703v14.818h-6.229c-0.673,0-1.221-0.548-1.221-1.222V61.925c0-0.674,0.548-1.222,1.221-1.222H55.496z M72.307,83.839
			l-15.345-8.028V60.414l15.345-8.028V83.839z"/>
		<path fill="#1A171B" d="M54.679,84.945c0,0.404,0.328,0.732,0.732,0.732h3.708c0.404,0,0.732-0.328,0.732-0.732
			s-0.328-0.732-0.732-0.732h-3.708C55.007,84.212,54.679,84.54,54.679,84.945z"/>
		<path fill="#1A171B" d="M51.503,84.212H39.839v-8.987c0-0.404-0.328-0.732-0.733-0.732c-0.404,0-0.732,0.328-0.732,0.732v9.72
			c0,0.404,0.328,0.732,0.732,0.732h12.397c0.404,0,0.732-0.328,0.732-0.732S51.907,84.212,51.503,84.212z"/>
		<path fill="#1A171B" d="M89.903,48.598c-0.404,0-0.732,0.329-0.732,0.733v3.909c0,0.404,0.328,0.732,0.732,0.732
			c0.405,0,0.733-0.328,0.733-0.732v-3.909C90.637,48.927,90.308,48.598,89.903,48.598z"/>
		<path fill="#1A171B" d="M89.903,27.54H74.765c-0.405,0-0.733,0.328-0.733,0.732c0,0.404,0.328,0.733,0.733,0.733h14.406v16.417
			c0,0.404,0.328,0.732,0.732,0.732c0.405,0,0.733-0.328,0.733-0.732v-17.15C90.637,27.868,90.308,27.54,89.903,27.54z"/>
		<path fill="#1A171B" d="M84.041,33.404h-3.548c-0.404,0-0.732,0.328-0.732,0.732c0,0.405,0.328,0.733,0.732,0.733h2.815v14.462
			c0,0.404,0.328,0.732,0.732,0.732c0.404,0,0.732-0.328,0.732-0.732V34.136C84.773,33.732,84.445,33.404,84.041,33.404z"/>
		<path fill="#1A171B" d="M76.585,33.404h-3.775c-0.404,0-0.732,0.328-0.732,0.732c0,0.405,0.328,0.733,0.732,0.733h3.775
			c0.404,0,0.732-0.328,0.732-0.733C77.317,33.732,76.989,33.404,76.585,33.404z"/>
	</g>
</g>
</svg>
